<svg xmlns="http://www.w3.org/2000/svg" xml:space="preserve" style="fill-rule:evenodd;clip-rule:evenodd;stroke-linejoin:round;stroke-miterlimit:2" viewBox="0 0 32 32"><path d="M13.57 12.95c-.02-.11 0-.43.29-1.32.02-.09.04-.15.09-.24.04-.11.09-.25.1-.36.14-.67.28-1.2.41-1.67.2-.65.31-1.31.44-1.96l.05-.27c.04-.27.11-.58.11-.85 0-.22.05-.44.09-.66l.02-.18c.14-.94.16-1.9.03-3.01-.1-.71-.32-1.56-.65-1.92A1.44 1.44 0 0 0 13.48 0l-.22.02a.46.46 0 0 0-.3.18l-.3.29c-.45.5-.67 1.1-.87 1.7-.16.44-.3.9-.3 1.4 0 .2-.02.35-.06.51-.18.56-.2 1.14-.25 1.7v.28c-.06.76-.04 1.5.05 2.19.2 1.58.6 3.1 1.18 4.5.04.11.04.18-.02.29-.36.6-.8 1.05-1.38 1.34-.12.04-.2.08-.32.1-.06.03-.15.03-.22.03-.16 0-.33-.04-.49-.13-.38-.18-.67-.4-.9-.7-.17-.2-.4-.49-.48-.73a.43.43 0 0 1 0-.34l.11-.24c.13-.27.25-.49.36-.74l.09-.22c.2-.49.4-.98.53-1.47.09-.33.13-.67.18-1.02l.07-.47.26-1.7.05-.2c.06-.22.13-.53.15-.69.05-.55.1-1.82.03-2.14l-.2-1.04c-.07-.27-.4-.63-.85-.8a.8.8 0 0 0-.31-.07c-.07 0-.14 0-.2.02a.78.78 0 0 0-.25.09.76.76 0 0 0-.4.47l-.09.24c-.13.31-.27.65-.36 1-.13.5-.22.98-.33 1.48-.09.44-.2.89-.31 1.36-.2.8-.3 1.6-.22 2.54 0 .2.04.4.08.6.05.2.07.42.07.64 0 .58.1 1.12.18 1.67 0 .1.09.32.16.54l.06.2c.05.11.03.25-.06.49-.12.29-.25.6-.43.85-.15.22-.47.42-.69.49-.09.02-.18.02-.27.02-.3 0-.6-.13-.84-.4-.05-.05-.07-.14 0-.34l.18-.62c.1-.38.22-.76.26-1.14 0-.13.05-.26.1-.4.06-.2.1-.44.1-.71 0-.31.07-.6.18-.98.05-.16.1-.31.13-.58.05-.18.1-.36.07-.56-.02-.29 0-.58.02-.96l.03-.29c.09-1.27.04-2.25-.14-3.16-.09-.42-.2-.85-.55-1.18a.52.52 0 0 0-.36-.11h-.13c-.2.06-.43.13-.6.4l-.12.2c-.2.29-.38.56-.49 1l-.1.38c-.14.5-.3 1-.37 1.52-.04.3-.06.64-.08 1.07 0 .24-.03.49-.07.75-.05.31-.05.6-.02.87.02.3.06.6.08.98.05.45.1.92.12 1.38 0 .27.04.52.09.79l.04.26c.07.4.2.76.36 1.1.2.48.18.57-.2.9a.95.95 0 0 1-.4.19h-.12c-.17-.03-.35-.14-.55-.34-.52-.56-.72-1.3-.92-2-.15-.56-.24-.9-.2-1.48v-.64c0-.51-.04-1.32 0-1.63l.07-1.05-.05-.62c.03-.27.1-.53.14-.82l.13-.67c0-.11 0-.22-.09-.31a.47.47 0 0 0-.26-.16c-.1-.02-.23 0-.23 0a.33.33 0 0 0-.29.29c-.09.27-.15.76-.18.9l-.04.26c-.07.42-.13.84-.16 1.3v2.02c-.02.91 0 2.03.36 3.12.2.64.5 1.31.9 2 .24.45.77.72 1.4.72.13 0 .26 0 .4-.05.2-.04.38-.1.53-.22.14-.09.25-.2.34-.33.1-.14.3-.16.46-.07.1.04.18.11.27.16.25.15.54.22.87.22.16 0 .31-.03.5-.05.4-.09.8-.4 1.08-.82l.1-.16a.37.37 0 0 1 .6-.04c.17.24.4.42.66.53l.16.1c.47.21.93.46 1.45.46.1 0 .22 0 .33-.04.13-.03.3-.1.42-.16.74-.4 1.3-.87 1.7-1.4l.11.1c.38.45 1.14 1.39 1.58 1.81.11.11.25.18.4.18h.1l.13-.07.02-.02c.13-.09.2-.27.2-.42-.02-.25-.2-.38-.31-.52-.07.05-1.68-1.71-1.74-2.02ZM12.1 7.69a4.85 4.85 0 0 1-.03-1.14l.14-1.34.11-1.13c.02-.2.04-.4.09-.6l.07-.45c.06-.49.29-.96.49-1.4l.1-.2c.05-.11.25-.4.37-.43.13-.02.24.02.24.02.13.05.25.14.29.27.07.16.13.36.22.54.07.09.07.2.1.3l.01.21c.03.09.05.2.05.36 0 .1.02.22.04.33.1.45.02.9-.02 1.47 0 0-.13 1.16-.18 1.43-.02.15-.06.4-.06.51v.02c-.03.85-.23 1.67-.45 2.48l-.04.15a70.36 70.36 0 0 1-.72 2.5c-.06-.2-.1-.36-.18-.54a9.68 9.68 0 0 1-.44-1.76c-.1-.55-.16-1.07-.2-1.6ZM9.29 6.9c-.09.31-.16.64-.18.98 0 .4-.24 1.8-.31 2.07-.04.22-.16.42-.25.65l-.09.2-.3.69-.07.13c-.03-.09-.05-.2-.05-.29L7.82 8.9c-.09-.78.07-1.51.2-2.16.02-.13.04-.27.04-.4 0-.11.03-.25.05-.36a24 24 0 0 0 .4-1.58 6.8 6.8 0 0 1 .38-1.3.41.41 0 0 1 .18-.15l.09-.04h.02c.06 0 .11.04.15.09.07.08.12.2.14.33a8.89 8.89 0 0 1-.18 3.59ZM4.05 9.67a9.1 9.1 0 0 1 .1-2.12c.01-.17.01-.35.04-.55.02-.38.04-.72.15-1.05.1-.22.14-.45.16-.65.04-.26.09-.5.2-.7.07-.12.29-.54.33-.54.05 0 .07.02.07.02.04.1.09.24.11.38l.07.49c.09.49.18 1 .13 1.49-.02.27-.02.53-.02.8 0 .43-.02.85-.09 1.27 0 .07-.13.92-.13 1.1 0 .28-.05.6-.14.95l-.09.45c-.02.15-.04.33-.08.49-.05.13-.1.27-.12.4-.08.38-.2.71-.29 1.07a8.07 8.07 0 0 1-.2-.96 41 41 0 0 1-.15-1.67l-.05-.65v-.02Z" style="fill:#63c9ba;fill-rule:nonzero" transform="translate(.39 .54) scale(1.93159)"/></svg>