<svg viewBox="0 0 512 512" xmlns="http://www.w3.org/2000/svg" role="img" aria-label="Procreate">
  <defs>
    <linearGradient id="pcSwirl" x1="0%" y1="0%" x2="100%" y2="100%">
      <stop offset="0%" stop-color="#F9E04C"/>
      <stop offset="25%" stop-color="#F5A623"/>
      <stop offset="50%" stop-color="#E8455E"/>
      <stop offset="75%" stop-color="#9B51E0"/>
      <stop offset="100%" stop-color="#2D9CDB"/>
    </linearGradient>
  </defs>
  <rect x="16" y="16" width="480" height="480" rx="112" fill="#1A1A1A"/>
  <path
    d="M256 96c88.4 0 160 60 160 140 0 66-52 116-124 116-30 0-52-18-52-44 0-30 26-40 26-64 0-18-16-30-38-30-56 0-102 48-102 112 0 8-6 14-14 14s-14-6-14-14c0-132 118-236 160-236z"
    fill="url(#pcSwirl)"/>
  <circle cx="150" cy="330" r="26" fill="#F9E04C"/>
</svg>
